<svg width="420" height="80" viewBox="0 0 420 80" fill="none" xmlns="http://www.w3.org/2000/svg">
<mask id="mask0" mask-type="alpha" maskUnits="userSpaceOnUse" x="0" y="5" width="418" height="72">
<path d="M92.2538 61.2299C96.3338 61.2299 99.3753 58.3368 99.3753 54.1826C99.3753 50.1026 96.3338 47.0611 92.2538 47.0611C88.0996 47.0611 85.1323 50.1026 85.1323 54.1826C85.1323 58.3368 88.0996 61.2299 92.2538 61.2299Z" fill="black"/>
<path d="M120.5 61.5266C131.034 61.5266 136.968 56.0371 136.968 49.064C136.968 33.1149 115.455 39.6429 115.455 33.1149C115.455 30.9637 117.384 29.3317 120.796 29.3317C124.58 29.3317 126.434 31.5571 126.657 34.0051H136.82C136.523 28.2931 132.517 20.8749 120.871 20.8749C111.301 20.8749 105.292 26.6611 105.292 33.7084C105.292 49.1382 126.879 42.9811 126.879 49.5091C126.879 51.6604 124.802 53.0699 120.796 53.0699C116.42 53.0699 114.491 50.6219 114.343 48.0255H103.66C104.18 55.2953 108.334 61.5266 120.5 61.5266Z" fill="black"/>
<path d="M158.257 51.5862C157.96 51.5862 157.515 51.6604 156.847 51.6604C154.473 51.6604 154.177 50.5477 154.177 48.9157V5H143.643V49.6575C143.643 57.3724 146.61 60.7848 154.993 60.7848C156.402 60.7848 157.737 60.6364 158.257 60.5622V51.5862Z" fill="black"/>
<path d="M188.46 43.1295V44.6873C188.46 49.8059 185.196 53.3666 179.039 53.3666C174.811 53.3666 173.179 51.9571 173.179 49.2866C173.179 47.1353 174.588 45.5033 179.113 44.6873L188.46 43.1295ZM176.665 61.5266C182.6 61.5266 186.531 59.8204 188.979 56.3339C188.979 58.8561 189.35 60.6364 189.425 60.6364H199.587C198.92 59.0786 198.475 56.1855 198.475 53.6633V35.3404C198.475 26.2902 192.837 20.8749 181.413 20.8749C169.099 20.8749 164.499 27.5513 163.906 34.3018H174.291C174.662 31.6313 176.591 29.5542 181.487 29.5542C186.086 29.5542 188.46 31.4829 188.46 35.2662V35.6371L178.075 37.1949C167.689 38.8269 163.016 42.8328 163.016 49.5833C163.016 56.5564 167.689 61.5266 176.665 61.5266Z" fill="black"/>
<path d="M218.439 56.4822C220.442 59.1528 224.448 61.5266 229.937 61.5266C241.213 61.5266 247.815 52.4764 247.815 41.2008C247.815 29.9251 241.213 20.8749 229.937 20.8749C224.448 20.8749 220.071 22.952 217.623 26.5127V21.7651H207.905V76.0663H218.439V56.4822ZM218.142 41.2008C218.142 34.8953 221.851 30.1477 227.712 30.1477C233.572 30.1477 237.281 34.8953 237.281 41.2008C237.281 47.5062 233.572 52.2539 227.712 52.2539C221.851 52.2539 218.142 47.5062 218.142 41.2008Z" fill="black"/>
<path d="M281.921 25.9193C279.918 23.2487 275.912 20.8749 270.423 20.8749C259.147 20.8749 252.545 29.9251 252.545 41.2008C252.545 52.4764 259.147 61.5266 270.423 61.5266C275.912 61.5266 280.289 59.4495 282.737 55.8888V60.6364H292.455V5H281.921V25.9193ZM282.218 41.2008C282.218 47.5062 278.509 52.2539 272.648 52.2539C266.788 52.2539 263.079 47.5062 263.079 41.2008C263.079 34.8953 266.788 30.1477 272.648 30.1477C278.509 30.1477 282.218 34.8953 282.218 41.2008Z" fill="black"/>
<path d="M325.523 43.1295V44.6873C325.523 49.8059 322.259 53.3666 316.102 53.3666C311.873 53.3666 310.241 51.9571 310.241 49.2866C310.241 47.1353 311.651 45.5033 316.176 44.6873L325.523 43.1295ZM313.728 61.5266C319.662 61.5266 323.594 59.8204 326.042 56.3339C326.042 58.8561 326.413 60.6364 326.487 60.6364H336.65C335.982 59.0786 335.537 56.1855 335.537 53.6633V35.3404C335.537 26.2902 329.9 20.8749 318.476 20.8749C306.161 20.8749 301.562 27.5513 300.969 34.3018H311.354C311.725 31.6313 313.654 29.5542 318.55 29.5542C323.149 29.5542 325.523 31.4829 325.523 35.2662V35.6371L315.137 37.1949C304.752 38.8269 300.078 42.8328 300.078 49.5833C300.078 56.5564 304.752 61.5266 313.728 61.5266Z" fill="black"/>
<path d="M358.766 61.5266C369.299 61.5266 375.234 56.0371 375.234 49.064C375.234 33.1149 353.721 39.6429 353.721 33.1149C353.721 30.9637 355.65 29.3317 359.062 29.3317C362.846 29.3317 364.7 31.5571 364.923 34.0051H375.086C374.789 28.2931 370.783 20.8749 359.136 20.8749C349.567 20.8749 343.558 26.6611 343.558 33.7084C343.558 49.1382 365.145 42.9811 365.145 49.5091C365.145 51.6604 363.068 53.0699 359.062 53.0699C354.686 53.0699 352.757 50.6219 352.608 48.0255H341.926C342.446 55.2953 346.6 61.5266 358.766 61.5266Z" fill="black"/>
<path d="M392.665 5H382.131V60.6364H392.665V38.456C392.665 33.1149 395.484 29.9251 400.602 29.9251C405.276 29.9251 407.205 33.0408 407.205 37.5658V60.6364H417.738V36.3789C417.738 27.1062 412.768 20.8749 403.421 20.8749C398.377 20.8749 394.668 22.6553 392.665 25.3258V5Z" fill="black"/>
<path fill-rule="evenodd" clip-rule="evenodd" d="M66.4599 27.4116L64.2114 56.5616V56.5616C64.0433 58.7247 62.2359 60.3938 60.0634 60.3926H6.40468V60.3926C4.23214 60.3938 2.42486 58.7246 2.25663 56.5616L0.00817201 27.4116H0.00817069C-0.108321 25.8875 1.03451 24.5576 2.56076 24.4413C2.63159 24.4359 2.7026 24.4332 2.77363 24.4333H63.6943V24.4333C65.2251 24.4323 66.4669 25.6708 66.4679 27.1995C66.4679 27.2703 66.4653 27.341 66.4599 27.4116L66.4599 27.4116ZM63.7027 16.1352V20.2843C63.7027 21.0481 63.0827 21.6673 62.3178 21.6673H4.15012H4.15012C3.38524 21.6673 2.76518 21.0481 2.76518 20.2843V20.2843V7.8369V7.8369C2.76518 6.30924 4.0053 5.07082 5.53507 5.07082H21.2445H21.2445C22.7138 5.0708 24.123 5.65372 25.1619 6.69133L30.2263 11.749V11.749C31.2653 12.7864 32.6744 13.3692 34.1437 13.3692H60.9327V13.3692C62.4625 13.3691 63.7026 14.6075 63.7027 16.1352C63.7027 16.1352 63.7027 16.1352 63.7027 16.1352V16.1352Z" fill="black"/>
</mask>
<g mask="url(#mask0)">
<g filter="url(#filter0_b)">
<rect x="-1.00018" y="-72.5544" width="427" height="224" fill="url(#paint0_linear)"/>
</g>
</g>
<defs>
<filter id="filter0_b" x="-111.425" y="-182.979" width="647.85" height="444.85" filterUnits="userSpaceOnUse" color-interpolation-filters="sRGB">
<feFlood flood-opacity="0" result="BackgroundImageFix"/>
<feGaussianBlur in="BackgroundImage" stdDeviation="55.2125"/>
<feComposite in2="SourceAlpha" operator="in" result="effect1_backgroundBlur"/>
<feBlend mode="normal" in="SourceGraphic" in2="effect1_backgroundBlur" result="shape"/>
</filter>
<linearGradient id="paint0_linear" x1="-1.00018" y1="-72.5544" x2="135.478" y2="299.95" gradientUnits="userSpaceOnUse">
<stop stop-color="#5081F7"/>
<stop offset="1" stop-color="#F08EB5"/>
</linearGradient>
</defs>
</svg>
